<svg width="180" height="158" viewBox="0 0 180 158" version="1.1" xmlns="http://www.w3.org/2000/svg" xmlns:xlink="http://www.w3.org/1999/xlink">
<title>JavaScript rising stars 2017</title>
<desc>Created using Figma</desc>
<g id="Canvas" transform="translate(-1168 -85)">
<g id="JavaScript rising stars 2017">
<use xlink:href="#path0_fill" transform="translate(1138 62)" fill="#541600"/>
</g>
</g>
<defs>
<path id="path0_fill" d="M 70.6384 32.9042C 70.6384 34.3215 70.2874 35.4072 69.5852 36.1613C 68.8961 36.9025 67.8819 37.2731 66.5427 37.2731C 65.2034 37.2731 64.1437 36.9025 63.3636 36.1613C 62.5964 35.4072 62.2129 34.3215 62.2129 32.9042L 62.2129 31.851L 63.8512 31.851L 63.8512 32.9042C 63.8512 33.7624 64.0722 34.4515 64.5143 34.9716C 64.9564 35.4917 65.6325 35.7518 66.5427 35.7518C 67.4528 35.7518 68.09 35.4917 68.454 34.9716C 68.8181 34.4515 69.0001 33.7624 69.0001 32.9042L 69.0001 24.8687L 67.5959 24.8687L 67.5959 23.3474L 71.8087 23.3474L 71.8087 24.8687L 70.6384 24.8687L 70.6384 32.9042ZM 81.4494 35.3617L 81.2154 35.3617C 80.9033 36.0118 80.4677 36.4929 79.9086 36.805C 79.3625 37.117 78.7839 37.2731 78.1728 37.2731C 77.5357 37.2731 76.9441 37.169 76.398 36.961C 75.8519 36.74 75.3708 36.4214 74.9547 36.0053C 74.5516 35.5762 74.2331 35.0561 73.999 34.445C 73.765 33.8339 73.6479 33.1253 73.6479 32.3191L 73.6479 32.0071C 73.6479 31.2139 73.765 30.5118 73.999 29.9007C 74.2331 29.2896 74.5516 28.776 74.9547 28.3599C 75.3708 27.9308 75.8519 27.6057 76.398 27.3847C 76.9441 27.1637 77.5227 27.0531 78.1338 27.0531C 78.7969 27.0531 79.395 27.2027 79.9281 27.5017C 80.4742 27.7878 80.9033 28.2364 81.2154 28.8475L 81.4494 28.8475L 81.4494 27.3262L 82.9707 27.3262L 82.9707 35.0106C 82.9707 35.4007 83.1462 35.5957 83.4973 35.5957L 83.9849 35.5957L 83.9849 37L 82.9512 37C 82.5091 37 82.145 36.857 81.859 36.5709C 81.5859 36.2849 81.4494 35.9208 81.4494 35.4787L 81.4494 35.3617ZM 78.3288 35.8298C 78.7839 35.8298 79.2 35.7453 79.5771 35.5762C 79.9671 35.4072 80.2987 35.1667 80.5717 34.8546C 80.8448 34.5425 81.0593 34.172 81.2154 33.7429C 81.3714 33.3008 81.4494 32.8132 81.4494 32.2801L 81.4494 32.0461C 81.4494 31.526 81.3714 31.0514 81.2154 30.6223C 81.0593 30.1802 80.8383 29.8032 80.5522 29.4911C 80.2792 29.179 79.9476 28.9385 79.5576 28.7695C 79.1805 28.5874 78.7709 28.4964 78.3288 28.4964C 77.8737 28.4964 77.4577 28.5809 77.0806 28.75C 76.7035 28.919 76.372 29.1595 76.0859 29.4716C 75.8129 29.7706 75.5983 30.1412 75.4423 30.5833C 75.2863 31.0124 75.2082 31.487 75.2082 32.0071L 75.2082 32.3191C 75.2082 33.4243 75.4943 34.289 76.0664 34.9131C 76.6515 35.5242 77.4057 35.8298 78.3288 35.8298ZM 92.1239 37L 89.1203 37L 85.7462 27.3262L 87.5405 27.3262L 90.505 36.2979L 90.7391 36.2979L 93.7036 27.3262L 95.498 27.3262L 92.1239 37ZM 105.334 35.3617L 105.1 35.3617C 104.788 36.0118 104.352 36.4929 103.793 36.805C 103.247 37.117 102.668 37.2731 102.057 37.2731C 101.42 37.2731 100.828 37.169 100.282 36.961C 99.7362 36.74 99.2551 36.4214 98.8391 36.0053C 98.436 35.5762 98.1174 35.0561 97.8834 34.445C 97.6493 33.8339 97.5323 33.1253 97.5323 32.3191L 97.5323 32.0071C 97.5323 31.2139 97.6493 30.5118 97.8834 29.9007C 98.1174 29.2896 98.436 28.776 98.8391 28.3599C 99.2551 27.9308 99.7362 27.6057 100.282 27.3847C 100.828 27.1637 101.407 27.0531 102.018 27.0531C 102.681 27.0531 103.279 27.2027 103.812 27.5017C 104.359 27.7878 104.788 28.2364 105.1 28.8475L 105.334 28.8475L 105.334 27.3262L 106.855 27.3262L 106.855 35.0106C 106.855 35.4007 107.031 35.5957 107.382 35.5957L 107.869 35.5957L 107.869 37L 106.836 37C 106.393 37 106.029 36.857 105.743 36.5709C 105.47 36.2849 105.334 35.9208 105.334 35.4787L 105.334 35.3617ZM 102.213 35.8298C 102.668 35.8298 103.084 35.7453 103.461 35.5762C 103.851 35.4072 104.183 35.1667 104.456 34.8546C 104.729 34.5425 104.944 34.172 105.1 33.7429C 105.256 33.3008 105.334 32.8132 105.334 32.2801L 105.334 32.0461C 105.334 31.526 105.256 31.0514 105.1 30.6223C 104.944 30.1802 104.723 29.8032 104.437 29.4911C 104.164 29.179 103.832 28.9385 103.442 28.7695C 103.065 28.5874 102.655 28.4964 102.213 28.4964C 101.758 28.4964 101.342 28.5809 100.965 28.75C 100.588 28.919 100.256 29.1595 99.9703 29.4716C 99.6972 29.7706 99.4827 30.1412 99.3266 30.5833C 99.1706 31.0124 99.0926 31.487 99.0926 32.0071L 99.0926 32.3191C 99.0926 33.4243 99.3787 34.289 99.9508 34.9131C 100.536 35.5242 101.29 35.8298 102.213 35.8298ZM 117.744 27.2872C 117.744 26.8451 117.653 26.455 117.471 26.117C 117.302 25.7789 117.068 25.4993 116.769 25.2783C 116.47 25.0573 116.125 24.8882 115.735 24.7712C 115.345 24.6542 114.936 24.5957 114.506 24.5957C 114.129 24.5957 113.772 24.6477 113.434 24.7517C 113.096 24.8427 112.79 24.9792 112.517 25.1613C 112.257 25.3433 112.049 25.5709 111.893 25.8439C 111.737 26.104 111.659 26.4095 111.659 26.7606L 111.659 26.8776C 111.659 27.2547 111.737 27.5797 111.893 27.8528C 112.049 28.1128 112.277 28.3404 112.576 28.5354C 112.888 28.7174 113.271 28.8735 113.726 29.0035C 114.181 29.1205 114.714 29.2245 115.326 29.3156C 116.756 29.5366 117.809 29.9592 118.485 30.5833C 119.161 31.1944 119.499 32.0201 119.499 33.0603L 119.499 33.2943C 119.499 33.8794 119.395 34.419 119.187 34.9131C 118.992 35.3942 118.693 35.8103 118.29 36.1613C 117.9 36.5124 117.412 36.7855 116.827 36.9805C 116.242 37.1755 115.566 37.2731 114.799 37.2731C 113.928 37.2731 113.154 37.1495 112.478 36.9025C 111.815 36.6424 111.256 36.2914 110.801 35.8493C 110.359 35.3942 110.021 34.8676 109.787 34.2695C 109.553 33.6584 109.435 32.9952 109.435 32.2801L 109.435 31.695L 111.074 31.695L 111.074 32.1631C 111.074 33.3593 111.399 34.2565 112.049 34.8546C 112.712 35.4527 113.629 35.7518 114.799 35.7518C 115.813 35.7518 116.574 35.5307 117.081 35.0886C 117.601 34.6336 117.861 34.0354 117.861 33.2943L 117.861 33.1773C 117.861 32.4621 117.595 31.916 117.061 31.539C 116.541 31.1619 115.69 30.8889 114.506 30.7198C 113.817 30.6288 113.193 30.4923 112.634 30.3102C 112.088 30.1152 111.62 29.8682 111.23 29.5691C 110.84 29.257 110.541 28.8865 110.333 28.4574C 110.125 28.0283 110.021 27.5212 110.021 26.9361L 110.021 26.7021C 110.021 26.169 110.131 25.6814 110.352 25.2393C 110.573 24.7972 110.879 24.4136 111.269 24.0886C 111.672 23.7635 112.146 23.5165 112.693 23.3474C 113.252 23.1654 113.863 23.0744 114.526 23.0744C 115.293 23.0744 115.976 23.1849 116.574 23.4059C 117.185 23.627 117.699 23.926 118.115 24.3031C 118.531 24.6672 118.843 25.1028 119.051 25.6099C 119.272 26.104 119.382 26.6241 119.382 27.1702L 119.382 27.9893L 117.744 27.9893L 117.744 27.2872ZM 131.247 33.5674C 131.142 34.1005 130.96 34.5945 130.7 35.0496C 130.453 35.5047 130.135 35.9013 129.745 36.2394C 129.355 36.5644 128.9 36.818 128.379 37C 127.859 37.182 127.281 37.2731 126.644 37.2731C 125.968 37.2731 125.324 37.1625 124.713 36.9415C 124.115 36.7204 123.588 36.4019 123.133 35.9858C 122.678 35.5567 122.314 35.0366 122.041 34.4255C 121.781 33.8144 121.651 33.1123 121.651 32.3191L 121.651 32.0851C 121.651 31.3049 121.781 30.6028 122.041 29.9787C 122.314 29.3546 122.678 28.828 123.133 28.3989C 123.588 27.9698 124.115 27.6382 124.713 27.4042C 125.324 27.1702 125.968 27.0531 126.644 27.0531C 127.255 27.0531 127.82 27.1442 128.34 27.3262C 128.861 27.5082 129.316 27.7683 129.706 28.1063C 130.109 28.4314 130.434 28.8215 130.681 29.2766C 130.941 29.7316 131.116 30.2257 131.208 30.7588L 129.686 31.1099C 129.647 30.7718 129.55 30.4468 129.394 30.1347C 129.251 29.8097 129.049 29.5301 128.789 29.2961C 128.542 29.049 128.236 28.854 127.872 28.7109C 127.508 28.5679 127.086 28.4964 126.605 28.4964C 126.137 28.4964 125.694 28.5874 125.278 28.7695C 124.875 28.9385 124.518 29.1855 124.206 29.5106C 123.894 29.8227 123.647 30.1997 123.465 30.6418C 123.296 31.0839 123.211 31.565 123.211 32.0851L 123.211 32.3191C 123.211 32.8652 123.296 33.3593 123.465 33.8014C 123.647 34.2305 123.894 34.5945 124.206 34.8936C 124.518 35.1927 124.882 35.4267 125.298 35.5957C 125.714 35.7518 126.163 35.8298 126.644 35.8298C 127.125 35.8298 127.541 35.7583 127.892 35.6152C 128.256 35.4592 128.562 35.2642 128.809 35.0301C 129.069 34.7831 129.27 34.5035 129.413 34.1915C 129.569 33.8794 129.673 33.5544 129.725 33.2163L 131.247 33.5674ZM 133.593 27.3262L 137.104 27.3262L 137.104 28.6134L 137.338 28.6134C 137.585 28.0803 137.936 27.6903 138.391 27.4432C 138.846 27.1832 139.366 27.0531 139.951 27.0531C 140.926 27.0531 141.713 27.3717 142.311 28.0088C 142.909 28.6459 143.228 29.5756 143.267 30.7978L 141.667 31.0319C 141.667 30.1347 141.453 29.4911 141.024 29.101C 140.595 28.6979 140.068 28.4964 139.444 28.4964C 139.041 28.4964 138.69 28.5744 138.391 28.7304C 138.105 28.8865 137.864 29.101 137.669 29.3741C 137.474 29.6471 137.331 29.9657 137.24 30.3297C 137.149 30.6938 137.104 31.0839 137.104 31.5L 137.104 35.5957L 139.561 35.5957L 139.561 37L 133.359 37L 133.359 35.5957L 135.582 35.5957L 135.582 28.7304L 133.593 28.7304L 133.593 27.3262ZM 149.085 24.4396C 149.085 24.0626 149.215 23.744 149.475 23.484C 149.748 23.2109 150.073 23.0744 150.45 23.0744C 150.827 23.0744 151.146 23.2109 151.406 23.484C 151.679 23.744 151.815 24.0626 151.815 24.4396C 151.815 24.8167 151.679 25.1418 151.406 25.4148C 151.146 25.6749 150.827 25.8049 150.45 25.8049C 150.073 25.8049 149.748 25.6749 149.475 25.4148C 149.215 25.1418 149.085 24.8167 149.085 24.4396ZM 146.315 35.5957L 149.709 35.5957L 149.709 28.7304L 146.666 28.7304L 146.666 27.3262L 151.23 27.3262L 151.23 35.5957L 154.39 35.5957L 154.39 37L 146.315 37L 146.315 35.5957ZM 159.194 40.9007L 157.672 40.9007L 157.672 27.3262L 159.194 27.3262L 159.194 28.8475L 159.428 28.8475C 159.766 28.2624 160.234 27.8203 160.832 27.5212C 161.43 27.2092 162.08 27.0531 162.782 27.0531C 163.38 27.0531 163.946 27.1637 164.479 27.3847C 165.012 27.6057 165.48 27.9243 165.883 28.3404C 166.299 28.7565 166.624 29.2701 166.859 29.8812C 167.106 30.4923 167.229 31.1879 167.229 31.9681L 167.229 32.3581C 167.229 33.1513 167.112 33.8534 166.878 34.4645C 166.644 35.0756 166.319 35.5892 165.903 36.0053C 165.5 36.4214 165.025 36.74 164.479 36.961C 163.933 37.169 163.354 37.2731 162.743 37.2731C 162.431 37.2731 162.113 37.234 161.788 37.156C 161.463 37.091 161.15 36.987 160.851 36.844C 160.565 36.6879 160.299 36.5059 160.052 36.2979C 159.805 36.0768 159.597 35.8168 159.428 35.5177L 159.194 35.5177L 159.194 40.9007ZM 162.431 35.8298C 162.899 35.8298 163.328 35.7518 163.718 35.5957C 164.108 35.4267 164.447 35.1927 164.733 34.8936C 165.032 34.5945 165.259 34.2305 165.415 33.8014C 165.584 33.3723 165.669 32.8912 165.669 32.3581L 165.669 31.9681C 165.669 31.448 165.584 30.9799 165.415 30.5638C 165.259 30.1347 165.032 29.7706 164.733 29.4716C 164.447 29.1595 164.102 28.919 163.699 28.75C 163.309 28.5809 162.886 28.4964 162.431 28.4964C 161.976 28.4964 161.554 28.5874 161.163 28.7695C 160.773 28.9385 160.429 29.179 160.13 29.4911C 159.844 29.8032 159.616 30.1802 159.447 30.6223C 159.278 31.0514 159.194 31.526 159.194 32.0461L 159.194 32.2801C 159.194 32.8132 159.278 33.3008 159.447 33.7429C 159.616 34.172 159.844 34.5425 160.13 34.8546C 160.429 35.1667 160.773 35.4072 161.163 35.5762C 161.554 35.7453 161.976 35.8298 162.431 35.8298ZM 169.634 27.3262L 172.677 27.3262L 172.677 23.3474L 174.198 23.3474L 174.198 27.3262L 177.943 27.3262L 177.943 28.7304L 174.198 28.7304L 174.198 35.0106C 174.198 35.4007 174.373 35.5957 174.724 35.5957L 177.474 35.5957L 177.474 37L 174.178 37C 173.736 37 173.372 36.857 173.086 36.5709C 172.813 36.2849 172.677 35.9208 172.677 35.4787L 172.677 28.7304L 169.634 28.7304L 169.634 27.3262ZM 31.3543 63.2L 41.8543 63.2L 41.8543 66.8L 42.7543 66.8C 43.221 65.4333 44.0043 64.3833 45.1043 63.65C 46.2376 62.8833 47.5876 62.5 49.1543 62.5C 51.621 62.5 53.6043 63.2833 55.1043 64.85C 56.6043 66.3833 57.3543 68.7333 57.3543 71.9L 57.3543 73L 50.8543 73.6L 50.8543 72.9C 50.8543 71.5333 50.5043 70.45 49.8043 69.65C 49.1043 68.8167 48.0543 68.4 46.6543 68.4C 45.2543 68.4 44.1543 68.8833 43.3543 69.85C 42.5543 70.8167 42.1543 72.2 42.1543 74L 42.1543 82L 47.8543 82L 47.8543 88L 30.7543 88L 30.7543 82L 35.8543 82L 35.8543 69.2L 31.3543 69.2L 31.3543 63.2ZM 63.6195 82L 72.0195 82L 72.0195 69.2L 64.2195 69.2L 64.2195 63.2L 78.3195 63.2L 78.3195 82L 85.5195 82L 85.5195 88L 63.6195 88L 63.6195 82ZM 79.8695 55.85C 79.8695 56.5167 79.7362 57.15 79.4695 57.75C 79.2362 58.3167 78.9029 58.8167 78.4695 59.25C 78.0362 59.65 77.5195 59.9833 76.9195 60.25C 76.3529 60.4833 75.7529 60.6 75.1195 60.6C 74.4529 60.6 73.8362 60.4833 73.2695 60.25C 72.7029 59.9833 72.2029 59.65 71.7695 59.25C 71.3362 58.8167 70.9862 58.3167 70.7195 57.75C 70.4862 57.15 70.3695 56.5167 70.3695 55.85C 70.3695 55.1833 70.4862 54.5667 70.7195 54C 70.9862 53.4 71.3362 52.9 71.7695 52.5C 72.2029 52.0667 72.7029 51.7333 73.2695 51.5C 73.8362 51.2333 74.4529 51.1 75.1195 51.1C 75.7529 51.1 76.3529 51.2333 76.9195 51.5C 77.5195 51.7333 78.0362 52.0667 78.4695 52.5C 78.9029 52.9 79.2362 53.4 79.4695 54C 79.7362 54.5667 79.8695 55.1833 79.8695 55.85ZM 101.685 70.2C 101.685 71 102.101 71.5833 102.935 71.95C 103.768 72.2833 105.285 72.5667 107.485 72.8C 110.018 73.0667 112.085 73.8333 113.685 75.1C 115.285 76.3333 116.085 78.0667 116.085 80.3L 116.085 80.6C 116.085 83.0667 115.185 85.0333 113.385 86.5C 111.585 87.9667 109.051 88.7 105.785 88.7C 103.851 88.7 102.201 88.45 100.835 87.95C 99.4681 87.45 98.3348 86.8333 97.4348 86.1C 96.5348 85.3333 95.8348 84.5 95.3348 83.6C 94.8681 82.6667 94.5514 81.7667 94.3848 80.9L 100.185 79C 100.451 80.0667 101.001 81 101.835 81.8C 102.701 82.6 104.018 83 105.785 83C 107.351 83 108.418 82.7667 108.985 82.3C 109.585 81.8 109.885 81.2667 109.885 80.7C 109.885 80.3667 109.801 80.0667 109.635 79.8C 109.501 79.5 109.235 79.2333 108.835 79C 108.435 78.7333 107.885 78.5167 107.185 78.35C 106.518 78.1833 105.668 78.05 104.635 77.95C 101.835 77.7167 99.6014 77 97.9348 75.8C 96.3014 74.5667 95.4848 72.7667 95.4848 70.4L 95.4848 70.1C 95.4848 68.8667 95.7514 67.7833 96.2848 66.85C 96.8181 65.9167 97.5181 65.1333 98.3848 64.5C 99.2514 63.8333 100.251 63.3333 101.385 63C 102.518 62.6667 103.685 62.5 104.885 62.5C 106.451 62.5 107.801 62.7 108.935 63.1C 110.101 63.4667 111.085 63.9667 111.885 64.6C 112.685 65.2 113.335 65.8833 113.835 66.65C 114.335 67.3833 114.718 68.1 114.985 68.8L 109.285 71.1C 108.985 70.2 108.468 69.5 107.735 69C 107.001 68.4667 106.051 68.2 104.885 68.2C 103.818 68.2 103.018 68.4 102.485 68.8C 101.951 69.1667 101.685 69.6333 101.685 70.2ZM 124.85 82L 133.25 82L 133.25 69.2L 125.45 69.2L 125.45 63.2L 139.55 63.2L 139.55 82L 146.75 82L 146.75 88L 124.85 88L 124.85 82ZM 141.1 55.85C 141.1 56.5167 140.967 57.15 140.7 57.75C 140.467 58.3167 140.133 58.8167 139.7 59.25C 139.267 59.65 138.75 59.9833 138.15 60.25C 137.583 60.4833 136.983 60.6 136.35 60.6C 135.683 60.6 135.067 60.4833 134.5 60.25C 133.933 59.9833 133.433 59.65 133 59.25C 132.567 58.8167 132.217 58.3167 131.95 57.75C 131.717 57.15 131.6 56.5167 131.6 55.85C 131.6 55.1833 131.717 54.5667 131.95 54C 132.217 53.4 132.567 52.9 133 52.5C 133.433 52.0667 133.933 51.7333 134.5 51.5C 135.067 51.2333 135.683 51.1 136.35 51.1C 136.983 51.1 137.583 51.2333 138.15 51.5C 138.75 51.7333 139.267 52.0667 139.7 52.5C 140.133 52.9 140.467 53.4 140.7 54C 140.967 54.5667 141.1 55.1833 141.1 55.85ZM 161.315 88L 155.015 88L 155.015 63.2L 161.315 63.2L 161.315 66.9L 162.215 66.9C 162.782 65.5 163.699 64.4167 164.965 63.65C 166.232 62.8833 167.715 62.5 169.415 62.5C 170.615 62.5 171.732 62.7 172.765 63.1C 173.832 63.4667 174.765 64.05 175.565 64.85C 176.365 65.65 176.982 66.6667 177.415 67.9C 177.882 69.1333 178.115 70.6 178.115 72.3L 178.115 88L 171.815 88L 171.815 73.9C 171.815 72.1333 171.382 70.75 170.515 69.75C 169.682 68.7167 168.465 68.2 166.865 68.2C 164.999 68.2 163.599 68.8333 162.665 70.1C 161.765 71.3333 161.315 73 161.315 75.1L 161.315 88ZM 203.33 84.4L 202.43 84.4C 202.164 84.9667 201.83 85.5167 201.43 86.05C 201.064 86.55 200.564 87 199.93 87.4C 199.33 87.8 198.597 88.1167 197.73 88.35C 196.897 88.5833 195.88 88.7 194.68 88.7C 193.147 88.7 191.714 88.4333 190.38 87.9C 189.08 87.3333 187.93 86.5167 186.93 85.45C 185.964 84.35 185.197 83.0167 184.63 81.45C 184.097 79.8833 183.83 78.0833 183.83 76.05L 183.83 75.15C 183.83 73.15 184.114 71.3667 184.68 69.8C 185.28 68.2333 186.08 66.9167 187.08 65.85C 188.114 64.75 189.297 63.9167 190.63 63.35C 191.997 62.7833 193.43 62.5 194.93 62.5C 196.93 62.5 198.514 62.8833 199.68 63.65C 200.847 64.3833 201.764 65.4333 202.43 66.8L 203.33 66.8L 203.33 63.2L 209.63 63.2L 209.63 94.1C 209.63 95.2333 209.264 96.1667 208.53 96.9C 207.83 97.6333 206.914 98 205.78 98L 189.08 98L 189.08 92L 201.98 92C 202.88 92 203.33 91.5 203.33 90.5L 203.33 84.4ZM 196.73 82.7C 198.697 82.7 200.28 82.0833 201.48 80.85C 202.714 79.5833 203.33 77.9333 203.33 75.9L 203.33 75.3C 203.33 73.2667 202.714 71.6333 201.48 70.4C 200.28 69.1333 198.697 68.5 196.73 68.5C 194.764 68.5 193.164 69.1167 191.93 70.35C 190.73 71.55 190.13 73.2 190.13 75.3L 190.13 75.9C 190.13 78 190.73 79.6667 191.93 80.9C 193.164 82.1 194.764 82.7 196.73 82.7ZM 55.7619 115.2C 55.7619 116 56.1786 116.583 57.0119 116.95C 57.8452 117.283 59.3619 117.567 61.5619 117.8C 64.0952 118.067 66.1619 118.833 67.7619 120.1C 69.3619 121.333 70.1619 123.067 70.1619 125.3L 70.1619 125.6C 70.1619 128.067 69.2619 130.033 67.4619 131.5C 65.6619 132.967 63.1286 133.7 59.8619 133.7C 57.9286 133.7 56.2786 133.45 54.9119 132.95C 53.5452 132.45 52.4119 131.833 51.5119 131.1C 50.6119 130.333 49.9119 129.5 49.4119 128.6C 48.9452 127.667 48.6286 126.767 48.4619 125.9L 54.2619 124C 54.5286 125.067 55.0786 126 55.9119 126.8C 56.7786 127.6 58.0952 128 59.8619 128C 61.4286 128 62.4952 127.767 63.0619 127.3C 63.6619 126.8 63.9619 126.267 63.9619 125.7C 63.9619 125.367 63.8786 125.067 63.7119 124.8C 63.5786 124.5 63.3119 124.233 62.9119 124C 62.5119 123.733 61.9619 123.517 61.2619 123.35C 60.5952 123.183 59.7452 123.05 58.7119 122.95C 55.9119 122.717 53.6786 122 52.0119 120.8C 50.3786 119.567 49.5619 117.767 49.5619 115.4L 49.5619 115.1C 49.5619 113.867 49.8286 112.783 50.3619 111.85C 50.8952 110.917 51.5952 110.133 52.4619 109.5C 53.3286 108.833 54.3286 108.333 55.4619 108C 56.5952 107.667 57.7619 107.5 58.9619 107.5C 60.5286 107.5 61.8786 107.7 63.0119 108.1C 64.1786 108.467 65.1619 108.967 65.9619 109.6C 66.7619 110.2 67.4119 110.883 67.9119 111.65C 68.4119 112.383 68.7952 113.1 69.0619 113.8L 63.3619 116.1C 63.0619 115.2 62.5452 114.5 61.8119 114C 61.0786 113.467 60.1286 113.2 58.9619 113.2C 57.8952 113.2 57.0952 113.4 56.5619 113.8C 56.0286 114.167 55.7619 114.633 55.7619 115.2ZM 77.7771 108.2L 85.1271 108.2L 85.1271 98L 91.4271 98L 91.4271 108.2L 100.377 108.2L 100.377 114.2L 91.4271 114.2L 91.4271 125.5C 91.4271 126.5 91.8771 127 92.7771 127L 99.4771 127L 99.4771 133L 88.9771 133C 87.8438 133 86.9105 132.633 86.1771 131.9C 85.4771 131.167 85.1271 130.233 85.1271 129.1L 85.1271 114.2L 77.7771 114.2L 77.7771 108.2ZM 125.142 129.4C 124.476 130.967 123.542 132.083 122.342 132.75C 121.142 133.383 119.742 133.7 118.142 133.7C 116.642 133.7 115.226 133.417 113.892 132.85C 112.592 132.283 111.442 131.45 110.442 130.35C 109.442 129.25 108.642 127.917 108.042 126.35C 107.476 124.783 107.192 123 107.192 121L 107.192 120.2C 107.192 118.233 107.476 116.467 108.042 114.9C 108.609 113.333 109.376 112 110.342 110.9C 111.309 109.8 112.426 108.967 113.692 108.4C 114.992 107.8 116.376 107.5 117.842 107.5C 119.609 107.5 121.026 107.8 122.092 108.4C 123.192 109 124.059 109.933 124.692 111.2L 125.592 111.2L 125.592 108.2L 131.892 108.2L 131.892 125.5C 131.892 126.5 132.342 127 133.242 127L 134.192 127L 134.192 133L 129.892 133C 128.759 133 127.826 132.667 127.092 132C 126.392 131.333 126.042 130.467 126.042 129.4L 125.142 129.4ZM 119.542 127.7C 121.376 127.7 122.842 127.1 123.942 125.9C 125.042 124.667 125.592 123 125.592 120.9L 125.592 120.3C 125.592 118.2 125.042 116.55 123.942 115.35C 122.842 114.117 121.376 113.5 119.542 113.5C 117.709 113.5 116.242 114.117 115.142 115.35C 114.042 116.55 113.492 118.2 113.492 120.3L 113.492 120.9C 113.492 123 114.042 124.667 115.142 125.9C 116.242 127.1 117.709 127.7 119.542 127.7ZM 138.508 108.2L 149.008 108.2L 149.008 111.8L 149.908 111.8C 150.374 110.433 151.158 109.383 152.258 108.65C 153.391 107.883 154.741 107.5 156.308 107.5C 158.774 107.5 160.758 108.283 162.258 109.85C 163.758 111.383 164.508 113.733 164.508 116.9L 164.508 118L 158.008 118.6L 158.008 117.9C 158.008 116.533 157.658 115.45 156.958 114.65C 156.258 113.817 155.208 113.4 153.808 113.4C 152.408 113.4 151.308 113.883 150.508 114.85C 149.708 115.817 149.308 117.2 149.308 119L 149.308 127L 155.008 127L 155.008 133L 137.908 133L 137.908 127L 143.008 127L 143.008 114.2L 138.508 114.2L 138.508 108.2ZM 178.223 115.2C 178.223 116 178.64 116.583 179.473 116.95C 180.306 117.283 181.823 117.567 184.023 117.8C 186.556 118.067 188.623 118.833 190.223 120.1C 191.823 121.333 192.623 123.067 192.623 125.3L 192.623 125.6C 192.623 128.067 191.723 130.033 189.923 131.5C 188.123 132.967 185.59 133.7 182.323 133.7C 180.39 133.7 178.74 133.45 177.373 132.95C 176.006 132.45 174.873 131.833 173.973 131.1C 173.073 130.333 172.373 129.5 171.873 128.6C 171.406 127.667 171.09 126.767 170.923 125.9L 176.723 124C 176.99 125.067 177.54 126 178.373 126.8C 179.24 127.6 180.556 128 182.323 128C 183.89 128 184.956 127.767 185.523 127.3C 186.123 126.8 186.423 126.267 186.423 125.7C 186.423 125.367 186.34 125.067 186.173 124.8C 186.04 124.5 185.773 124.233 185.373 124C 184.973 123.733 184.423 123.517 183.723 123.35C 183.056 123.183 182.206 123.05 181.173 122.95C 178.373 122.717 176.14 122 174.473 120.8C 172.84 119.567 172.023 117.767 172.023 115.4L 172.023 115.1C 172.023 113.867 172.29 112.783 172.823 111.85C 173.356 110.917 174.056 110.133 174.923 109.5C 175.79 108.833 176.79 108.333 177.923 108C 179.056 107.667 180.223 107.5 181.423 107.5C 182.99 107.5 184.34 107.7 185.473 108.1C 186.64 108.467 187.623 108.967 188.423 109.6C 189.223 110.2 189.873 110.883 190.373 111.65C 190.873 112.383 191.256 113.1 191.523 113.8L 185.823 116.1C 185.523 115.2 185.006 114.5 184.273 114C 183.54 113.467 182.59 113.2 181.423 113.2C 180.356 113.2 179.556 113.4 179.023 113.8C 178.49 114.167 178.223 114.633 178.223 115.2ZM 86.9647 176.157L 86.9647 180L 63.6096 180L 63.6096 174.087C 63.6096 172.511 63.8724 171.147 64.398 169.998C 64.9236 168.815 65.6626 167.813 66.6152 166.992C 67.6007 166.138 68.7832 165.432 70.1629 164.873C 71.5425 164.315 73.1028 163.839 74.8437 163.444C 77.7672 162.788 79.8695 161.851 81.1506 160.636C 82.4645 159.421 83.1215 157.926 83.1215 156.152L 83.1215 155.857C 83.1215 154.97 82.9737 154.099 82.678 153.245C 82.3824 152.391 81.9225 151.619 81.2984 150.929C 80.6743 150.239 79.8695 149.697 78.8841 149.303C 77.9315 148.876 76.7818 148.663 75.435 148.663C 72.9057 148.663 70.9348 149.435 69.5223 150.979C 68.1427 152.522 67.4529 154.575 67.4529 157.138L 67.4529 159.306L 63.314 159.306L 63.314 156.842C 63.314 155.265 63.5768 153.754 64.1023 152.309C 64.6279 150.864 65.3999 149.583 66.4182 148.466C 67.4364 147.349 68.7011 146.462 70.2121 145.805C 71.7231 145.148 73.4641 144.82 75.435 144.82C 77.4387 144.82 79.1797 145.132 80.6579 145.756C 82.136 146.347 83.3679 147.152 84.3533 148.17C 85.3388 149.155 86.0614 150.289 86.5213 151.57C 87.014 152.818 87.2604 154.099 87.2604 155.413L 87.2604 156.3C 87.2604 158.928 86.4392 161.178 84.7968 163.05C 83.1543 164.89 80.5265 166.204 76.9132 166.992C 73.7597 167.682 71.4439 168.602 69.9658 169.751C 68.4876 170.868 67.7485 172.511 67.7485 174.679L 67.7485 176.157L 86.9647 176.157ZM 93.2866 158.911C 93.2866 154.444 94.3542 150.979 96.4893 148.515C 98.6245 146.051 101.597 144.82 105.408 144.82C 109.218 144.82 112.191 146.051 114.326 148.515C 116.461 150.979 117.529 154.444 117.529 158.911L 117.529 166.598C 117.529 171.197 116.461 174.695 114.326 177.093C 112.191 179.491 109.218 180.69 105.408 180.69C 101.597 180.69 98.6245 179.491 96.4893 177.093C 94.3542 174.695 93.2866 171.197 93.2866 166.598L 93.2866 158.911ZM 105.408 176.945C 108.068 176.945 110.056 176.025 111.37 174.186C 112.716 172.314 113.39 169.686 113.39 166.302L 113.39 159.207C 113.39 157.63 113.226 156.201 112.897 154.92C 112.569 153.606 112.059 152.49 111.37 151.57C 110.713 150.617 109.875 149.878 108.857 149.353C 107.871 148.827 106.722 148.564 105.408 148.564C 104.061 148.564 102.895 148.827 101.909 149.353C 100.924 149.878 100.086 150.617 99.3964 151.57C 98.7394 152.49 98.2467 153.606 97.9182 154.92C 97.5897 156.201 97.4255 157.63 97.4255 159.207L 97.4255 166.302C 97.4255 169.686 98.0825 172.314 99.3964 174.186C 100.743 176.025 102.747 176.945 105.408 176.945ZM 102.254 162.755C 102.254 161.901 102.566 161.162 103.19 160.537C 103.814 159.913 104.554 159.601 105.408 159.601C 106.262 159.601 107.001 159.913 107.625 160.537C 108.249 161.162 108.561 161.901 108.561 162.755C 108.561 163.609 108.249 164.348 107.625 164.972C 107.001 165.596 106.262 165.908 105.408 165.908C 104.554 165.908 103.814 165.596 103.19 164.972C 102.566 164.348 102.254 163.609 102.254 162.755ZM 133.754 176.157L 133.754 147.332L 133.163 147.332L 127.497 160.291L 123.407 160.291L 123.407 159.995L 129.862 145.509L 137.893 145.509L 137.893 176.157L 147.649 176.157L 147.649 180L 123.998 180L 123.998 176.157L 133.754 176.157ZM 154.217 145.509L 177.277 145.509L 177.277 151.521L 162.741 173.496C 162.052 174.547 161.526 175.451 161.165 176.206C 160.803 176.962 160.623 177.733 160.623 178.522L 160.623 180L 156.582 180L 156.582 178.226C 156.582 177.635 156.632 177.077 156.73 176.551C 156.862 176.025 157.042 175.5 157.272 174.974C 157.535 174.416 157.847 173.841 158.208 173.25C 158.603 172.626 159.062 171.919 159.588 171.131L 173.729 149.944L 173.729 149.353L 154.217 149.353L 154.217 145.509Z"/>
</defs>
</svg>
